HIERARCHY
ROOT Hips
{
	OFFSET 0.000000 8.830580 0.000000
	CHANNELS 6 Xposition Yposition Zposition Zrotation Yrotation Xrotation 
	JOINT Spine
	{
		OFFSET 0.000000 0.010000 0.000000
		CHANNELS 3 Zrotation Yrotation Xrotation
		JOINT Spine1
		{
			OFFSET 0.000000 2.459130 0.000000
			CHANNELS 3 Zrotation Yrotation Xrotation
			JOINT Neck
			{
				OFFSET 0.000000 2.484630 0.000000
				CHANNELS 3 Zrotation Yrotation Xrotation
				JOINT Head_virtual
				{
					OFFSET 0.000000 0.000000 0.000000
					CHANNELS 3 Zrotation Yrotation Xrotation
					JOINT Head
					{
						OFFSET 0.000000 0.927525 0.000000
						CHANNELS 3 Zrotation Yrotation Xrotation
						End Site
						{
							OFFSET 0.000000 0.000000 0.000000
						}
					}
				}
				JOINT LeftUpArm_virtual
				{
					OFFSET 0.000000 0.000000 0.000000
					CHANNELS 3 Zrotation Yrotation Xrotation
					JOINT LeftUpArm
					{
						OFFSET 1.248820 0.000000 0.000000
						CHANNELS 3 Zrotation Yrotation Xrotation
						JOINT LeftForeArm
						{
							OFFSET 2.597580 0.000000 0.000000
							CHANNELS 3 Zrotation Yrotation Xrotation
							JOINT LeftHand
							{
								OFFSET 2.455420 0.000000 0.000000
								CHANNELS 3 Zrotation Yrotation Xrotation
								End Site
								{
									OFFSET 0.000000 0.000000 0.000000
								}
							}
						}
					}
				}
				JOINT RightUpArm_virtual
				{
					OFFSET -0.000000 -0.000000 -0.000000
					CHANNELS 3 Zrotation Yrotation Xrotation
					JOINT RightUpArm
					{
						OFFSET -1.248820 -0.000000 -0.000000
						CHANNELS 3 Zrotation Yrotation Xrotation
						JOINT RightForeArm
						{
							OFFSET -2.597580 -0.000000 -0.000000
							CHANNELS 3 Zrotation Yrotation Xrotation
							JOINT RightHand
							{
								OFFSET -2.455420 -0.000000 -0.000000
								CHANNELS 3 Zrotation Yrotation Xrotation
								End Site
								{
									OFFSET 0.000000 0.000000 0.000000
								}
							}
						}
					}
				}
			}
		}
	}
	JOINT LeftUpLeg
	{
		OFFSET 1.271939 0.000000 0.000000
		CHANNELS 3 Zrotation Yrotation Xrotation
		JOINT LeftLowLeg
		{
			OFFSET 0.000000 -4.342910 0.000000
			CHANNELS 3 Zrotation Yrotation Xrotation
			JOINT LeftFoot
			{
				OFFSET 0.000000 -4.487670 0.000000
				CHANNELS 3 Zrotation Yrotation Xrotation
				JOINT LeftToeBase
				{
					OFFSET 0.000000 0.000000 1.515070
					CHANNELS 3 Zrotation Yrotation Xrotation
					End Site
					{
						OFFSET 0.000000 0.000000 0.000000
					}
				}
			}
		}
	}
	JOINT RightUpLeg
	{
		OFFSET -1.271939 0.000000 0.000000
		CHANNELS 3 Zrotation Yrotation Xrotation
		JOINT RightLowLeg
		{
			OFFSET 0.000000 -4.342910 0.000000
			CHANNELS 3 Zrotation Yrotation Xrotation
			JOINT RightFoot
			{
				OFFSET 0.000000 -4.487670 0.000000
				CHANNELS 3 Zrotation Yrotation Xrotation
				JOINT RightToeBase
				{
					OFFSET 0.000000 0.000000 1.515070
					CHANNELS 3 Zrotation Yrotation Xrotation
					End Site
					{
						OFFSET 0.000000 0.000000 0.000000
					}
				}
			}
		}
	}
}
MOTION
Frames: 11
Frame Time: 0.041667
-13.842851 8.620518 36.537626 178.093700 2.369775 179.039262 1.703455 -0.935980 -17.226570 -5.793146 3.556769 17.954457 0.000000 0.000000 0.000000 9.734828 -1.326156 11.089960 3.143267 -0.682030 -83.612959 -25.965099 2.508170 6.808014 -45.702499 -7.881240 26.516701 0.000000 -19.295900 0.000000 8.687900 15.675000 -5.964870 30.601500 -4.337000 3.876007 47.879799 3.471930 15.781006 0.000000 20.021200 0.000000 1.615320 -8.728770 -7.434030 -4.892694 -18.435081 0.085932 0.000000 0.000000 18.334200 -18.643537 5.063391 -8.115381 0.000000 0.000000 -17.253890 4.413456 25.111586 -1.372142 0.000000 0.000000 22.027000 71.888844 23.770439 -17.960733 0.000000 0.000000 23.824501 
-13.840353 8.620888 36.536626 178.100433 2.113836 179.075913 1.731050 -0.967497 -17.210630 -5.820225 3.492858 17.911698 0.000000 0.000000 0.000000 9.763948 -1.382600 11.042350 3.143784 -0.696467 -83.601233 -25.949699 2.516270 6.873993 -45.792301 -7.894990 26.309700 0.000000 -19.218399 0.000000 8.712110 15.740500 -6.454600 30.542999 -4.347210 4.002014 47.887699 3.577720 15.744995 0.000000 20.036100 0.000000 1.628520 -8.771310 -7.361560 -4.838978 -18.574699 0.003918 0.000000 0.000000 18.387600 -18.682688 4.931618 -8.078506 0.000000 0.000000 -17.243840 4.407295 24.808629 -1.362445 0.000000 0.000000 21.973101 71.858864 23.754300 -17.881855 0.000000 0.000000 23.789101 
-13.836824 8.622099 36.533755 178.069786 2.063542 179.166257 1.717636 -0.913748 -17.317671 -5.746211 3.581600 17.945440 0.000000 0.000000 0.000000 9.796664 -1.476836 10.991246 3.120637 -0.735070 -83.598186 -25.975800 2.469990 6.858002 -45.861698 -7.896790 26.183399 0.000000 -19.142401 0.000000 8.778180 15.880400 -6.354030 30.489201 -4.359190 3.881012 47.847401 3.512630 15.855011 0.000000 20.012600 0.000000 1.802990 -8.854400 -7.350140 -4.791079 -18.422391 -0.056202 0.000000 0.000000 18.321100 -18.562171 4.803439 -7.953313 0.000000 0.000000 -17.321550 4.331022 24.621815 -1.453555 0.000000 0.000000 21.981501 71.843904 23.774601 -17.711200 0.000000 0.000000 23.714500 
-13.833389 8.623229 36.531410 178.087904 1.909843 179.169128 1.749762 -0.889977 -17.315755 -5.754015 3.572701 17.936441 0.000000 0.000000 0.000000 9.809736 -1.502240 10.994443 3.150707 -0.746517 -83.621151 -25.960501 2.468210 6.897003 -45.909500 -7.962830 26.034201 0.000000 -19.110901 0.000000 8.926620 15.918500 -6.142460 30.479500 -4.347250 3.898010 47.828499 3.523000 15.838013 0.000000 19.965300 0.000000 1.682950 -8.754820 -7.149020 -4.710404 -18.294586 -0.071918 0.000000 0.000000 18.325100 -18.484909 4.569781 -7.847001 0.000000 0.000000 -17.373870 4.363135 24.431473 -1.387393 0.000000 0.000000 21.893101 71.877798 23.758075 -17.626812 0.000000 0.000000 23.726002 
-13.830826 8.623736 36.530854 178.068730 1.813286 179.172433 1.747399 -0.881447 -17.275809 -5.707348 3.587371 17.888232 0.000000 0.000000 0.000000 9.757773 -1.507819 10.992166 3.144274 -0.794200 -83.649164 -26.007099 2.503630 6.941010 -45.896801 -8.074950 25.953699 0.000000 -19.121599 0.000000 9.030040 15.861200 -5.614730 30.471500 -4.305770 3.994995 47.701599 3.517060 15.821991 0.000000 20.099600 0.000000 1.832300 -8.870850 -7.170250 -4.671311 -18.160573 -0.103115 0.000000 0.000000 18.352400 -18.442504 4.346399 -7.754840 0.000000 0.000000 -17.428960 4.335114 24.230160 -1.393075 0.000000 0.000000 21.904200 71.904458 23.808567 -17.490635 0.000000 0.000000 23.675598 
-13.826434 8.625248 36.526439 178.032585 1.658967 179.168153 1.721676 -0.855215 -17.327391 -5.708666 3.636199 17.922802 0.000000 0.000000 0.000000 9.830987 -1.597269 10.949245 3.102839 -0.795959 -83.602319 -25.940201 2.480060 6.937988 -45.921398 -8.135060 26.050400 0.000000 -19.189501 0.000000 9.155470 15.732800 -4.984360 30.464800 -4.432980 4.109009 47.708302 3.712190 15.773987 0.000000 20.010200 0.000000 1.801510 -8.825820 -7.012730 -4.603850 -17.832877 -0.094207 0.000000 0.000000 18.322001 -18.341829 3.904957 -7.532387 0.000000 0.000000 -17.508440 4.317417 23.948409 -1.325706 0.000000 0.000000 21.844000 71.825524 23.785048 -17.370714 0.000000 0.000000 23.631401 
-13.822004 8.627294 36.523411 178.014616 1.523385 179.147469 1.680117 -0.928528 -17.371853 -5.632047 3.642492 17.978355 0.000000 0.000000 0.000000 9.733359 -1.540995 10.940695 3.108014 -0.835317 -83.602679 -25.953899 2.517610 6.803009 -45.907700 -8.086100 26.149200 0.000000 -19.304399 0.000000 9.359420 15.568700 -4.767800 30.439600 -4.317970 4.122009 47.682899 3.680490 15.735992 0.000000 19.950199 0.000000 1.857360 -8.819270 -7.289150 -4.494894 -17.335387 -0.071338 0.000000 0.000000 18.262300 -18.118608 3.372326 -7.245814 0.000000 0.000000 -17.632620 4.333299 23.749738 -1.266643 0.000000 0.000000 21.819901 71.825322 23.754123 -17.296531 0.000000 0.000000 23.613701 
-13.815842 8.630302 36.517560 177.936887 1.382623 179.127827 1.642228 -0.917962 -17.197476 -5.778675 3.553966 17.522386 0.000000 0.000000 0.000000 9.667848 -1.451010 11.368283 3.079095 -0.864962 -83.760937 -25.955299 2.677740 6.947998 -45.743301 -7.987430 26.129700 0.000000 -19.523899 0.000000 9.595320 15.287100 -3.751160 30.620100 -4.357180 4.442993 47.544800 3.717320 15.662994 0.000000 19.960199 0.000000 1.925060 -8.855040 -7.590210 -4.413310 -16.717989 0.067685 0.000000 0.000000 17.975500 -17.963107 2.693781 -6.825478 0.000000 0.000000 -17.723880 4.311680 23.550800 -1.173246 0.000000 0.000000 21.775900 71.594937 23.587252 -17.298948 0.000000 0.000000 23.642300 
-13.809322 8.633515 36.513813 177.808949 1.362824 179.149858 1.556280 -0.887459 -17.288838 -5.840000 3.622801 17.486568 0.000000 0.000000 0.000000 9.580609 -1.391155 11.467006 3.034162 -0.908413 -83.692920 -25.819500 2.770700 7.037994 -45.764198 -8.047160 26.121401 0.000000 -19.724600 0.000000 9.916840 15.127600 -3.604300 30.605101 -4.391650 4.708008 47.650200 3.900530 15.401001 0.000000 20.002199 0.000000 1.890970 -8.915560 -7.636550 -4.328910 -15.841011 0.196908 0.000000 0.000000 17.590700 -17.714040 1.881178 -6.305813 0.000000 0.000000 -17.860620 4.209414 23.423975 -1.205304 0.000000 0.000000 21.828899 71.695970 23.617946 -17.215139 0.000000 0.000000 23.721802 
-13.802774 8.637692 36.513249 177.680790 1.347009 179.013159 1.457293 -0.895719 -17.110355 -5.880844 3.643877 17.312301 0.000000 0.000000 0.000000 9.343057 -1.192545 11.670104 2.962892 -0.978925 -83.744232 -25.809999 2.911910 7.026001 -45.694099 -7.962980 25.979099 0.000000 -20.000099 0.000000 10.101800 14.972900 -3.654130 30.682400 -4.285360 4.563995 47.642101 3.617250 15.437012 0.000000 20.133801 0.000000 1.788780 -8.847150 -7.321990 -4.285956 -15.075895 0.480099 0.000000 0.000000 17.198999 -17.556337 1.093588 -5.761753 0.000000 0.000000 -18.069860 4.165792 23.248941 -1.089803 0.000000 0.000000 21.877001 71.706967 23.591583 -17.108766 0.000000 0.000000 23.714600 
-13.796820 8.642775 36.508939 177.609591 1.000505 179.096312 1.403984 -1.028704 -17.355286 -5.916065 3.585274 17.402845 0.000000 0.000000 0.000000 9.075755 -1.074373 11.723071 2.846981 -1.123892 -83.681984 -25.760000 3.017970 7.145996 -45.644100 -8.016860 25.794600 0.000000 -20.285801 0.000000 10.381900 14.715200 -3.526920 30.593599 -4.369670 4.744995 47.778301 3.801840 15.520996 0.000000 20.229700 0.000000 1.752290 -8.848070 -7.412490 -4.155705 -14.776179 0.492199 0.000000 0.000000 16.914499 -17.590794 0.349875 -5.289900 0.000000 0.000000 -18.308640 4.064893 22.514987 -1.096646 0.000000 0.000000 21.756701 71.785838 23.612127 -16.813239 0.000000 0.000000 23.772202 
